<?xml version="1.0" standalone="no"?>
<!DOCTYPE svg PUBLIC "-//W3C//DTD SVG 20010904//EN"
 "http://www.w3.org/TR/2001/REC-SVG-20010904/DTD/svg10.dtd">
<svg version="1.0" xmlns="http://www.w3.org/2000/svg"
 width="225.000000pt" height="225.000000pt" viewBox="0 0 225.000000 225.000000"
 preserveAspectRatio="xMidYMid meet">
<metadata>
Created by potrace 1.10, written by Peter Selinger 2001-2011
</metadata>
<g transform="translate(0.000000,225.000000) scale(0.100000,-0.100000)"
fill="#000000" stroke="none">
<path d="M944 1870 c-133 -27 -240 -118 -284 -242 -15 -44 -24 -54 -54 -64
-97 -34 -180 -123 -217 -233 -17 -51 -20 -79 -17 -140 6 -86 28 -143 82 -214
35 -46 37 -51 30 -106 -12 -108 39 -238 124 -312 79 -70 200 -104 309 -87 61
9 61 9 108 -26 96 -74 263 -88 375 -32 93 46 165 127 191 215 11 38 19 45 73
70 78 36 141 99 180 181 28 59 31 74 31 160 0 81 -4 103 -26 150 -14 30 -39
70 -55 89 -27 33 -29 40 -30 125 -1 125 -27 190 -108 272 -90 90 -212 129
-326 105 -49 -11 -55 -10 -84 12 -51 39 -108 64 -171 76 -65 12 -73 12 -131 1z
m189 -111 c26 -13 47 -25 47 -28 0 -4 -70 -46 -154 -94 -85 -49 -157 -96 -160
-104 -3 -8 -6 -115 -6 -239 l0 -224 -67 43 -68 44 0 214 0 214 31 55 c38 66
85 106 156 132 68 24 155 19 221 -13z m129 -26 c7 -9 -2 -18 -31 -33 -40 -20
-53 -16 -29 8 9 9 9 18 0 37 -7 14 -12 28 -12 31 0 7 59 -28 72 -43z m248 -60
c62 -28 126 -96 150 -160 23 -62 28 -152 8 -135 -7 5 -80 49 -162 97 -132 77
-151 86 -173 76 -13 -6 -104 -58 -203 -116 -98 -58 -180 -105 -182 -105 -2 0
-2 37 0 83 l3 82 164 93 c90 51 176 97 192 102 44 15 153 5 203 -17z m-833
-189 c-2 -3 -18 3 -35 13 l-30 17 31 24 32 23 3 -37 c2 -20 1 -38 -1 -40z
m-45 -171 c-2 -91 -1 -176 2 -189 4 -16 51 -48 168 -117 90 -52 180 -104 201
-115 l38 -20 -68 -38 c-37 -20 -72 -37 -78 -37 -22 0 -321 180 -353 212 -100
99 -111 267 -26 379 24 31 99 92 113 92 3 0 5 -75 3 -167z m875 60 c189 -107
214 -127 252 -205 69 -137 23 -302 -104 -377 l-35 -20 0 175 c0 96 -4 183 -10
193 -5 10 -97 69 -205 131 l-196 113 68 38 c37 20 70 38 73 38 2 1 73 -38 157
-86z m-307 36 c-7 -11 -9 -32 -6 -45 7 -28 2 -29 -43 -5 l-34 18 29 20 c24 17
45 27 62 32 1 1 -2 -8 -8 -20z m525 -117 c-2 -2 -17 7 -34 19 l-31 23 27 22
28 22 6 -41 c4 -23 5 -44 4 -45z m-765 -1 c0 -8 -43 -51 -52 -51 -4 0 -8 23
-8 50 l0 51 30 -23 c17 -12 30 -24 30 -27z m257 -11 l83 -45 0 -107 0 -107
-67 -39 c-38 -22 -77 -44 -89 -50 -17 -9 -34 -3 -105 37 l-84 48 -3 109 -2
109 82 47 c46 25 88 45 93 45 6 -1 47 -22 92 -47z m180 -52 c9 -7 5 -16 -16
-34 -38 -31 -41 -30 -41 10 0 19 -4 38 -10 41 -5 3 -10 11 -10 16 0 9 52 -13
77 -33z m131 -347 l-3 -216 -30 -54 c-67 -121 -226 -178 -357 -128 -85 33 -83
36 84 132 84 48 156 93 160 99 4 6 8 113 8 238 l0 227 71 -41 70 -41 -3 -216z
m-618 173 c0 -14 5 -34 11 -46 16 -29 9 -29 -38 -1 l-42 25 27 23 c35 31 42
31 42 -1z m440 -96 l0 -51 -27 24 c-16 13 -30 25 -32 27 -6 3 41 52 51 52 4 0
8 -23 8 -52z m-767 -36 c3 -4 -9 -17 -24 -30 l-29 -24 0 29 c0 15 -3 39 -7 52
l-6 25 31 -23 c17 -12 33 -25 35 -29z m714 -157 c-7 -18 -318 -192 -367 -205
-170 -46 -371 111 -358 278 l3 39 150 -88 c83 -49 159 -89 170 -89 11 0 106
49 210 110 l190 109 3 -71 c2 -39 1 -76 -1 -83z m-201 129 c37 -15 38 -17 19
-31 -35 -25 -75 -44 -75 -34 0 5 5 13 11 17 6 3 9 19 5 35 -7 34 -9 33 40 13z
m513 -138 l22 -24 -30 -22 -31 -21 0 45 c0 52 7 56 39 22z m-549 -191 c0 -3
-5 -14 -12 -24 -9 -15 -8 -24 6 -46 l17 -26 -28 15 c-15 8 -36 21 -47 29 -18
13 -17 15 15 34 35 22 49 27 49 18z"/>
</g>
</svg>
